<svg xmlns="http://www.w3.org/2000/svg" viewBox="0 0 54 18" width="54" height="18" role="img" aria-label="Apple Pay">
  <rect x="0.5" y="0.5" width="53" height="17" rx="2" fill="#fff" stroke="#000" stroke-width="1"/>
  <!-- 简化苹果轮廓 + Pay -->
  <g fill="#000" transform="translate(4, 2.5)">
    <path d="M6.2 2.1c.4-.5 1-.8 1.6-.8.1.9-.3 1.7-.8 2.2-.4.4-.9.7-1.4.7-.1-.9.3-1.7.6-2.1zm1.5 1.4c.9 0 1.6.5 2 .5-.1.7-.5 1.4-1 2-.5.6-1 .9-1.5.9-.5 0-.9-.3-1.4-.3-.5 0-1 .4-1.5.4-.6 0-1.2-.4-1.7-1.1C2.8 4.5 2 3.2 2 1.8 2 .8 2.4 0 3.5 0c.5 0 1 .2 1.3.5.3-.3.8-.5 1.3-.5 1.2 0 2 .8 2.6 1.8-.5.3-1 .9-1 1.6 0 1 .8 1.7 1.7 1.9-.2.6-.7 1.2-1.2 1.5-.5.4-1 .6-1.5.6-.6 0-1-.3-1.5-.3s-1 .3-1.6.3c-.6 0-1.2-.2-1.7-.7-.8-.8-1.4-2-1.4-3.2 0-1.2.6-2.3 1.5-2.8z" transform="scale(1.15)"/>
  </g>
  <text x="22" y="12.5" font-family="-apple-system, BlinkMacSystemFont, 'Segoe UI', sans-serif" font-size="7.5" font-weight="700" fill="#000">Pay</text>
</svg>
